<svg width="200" height="200" viewBox="0 0 200 200" fill="none" xmlns="http://www.w3.org/2000/svg">
<path d="M165.698 67.3366C164.7 68.1194 147.068 78.1551 147.068 100.47C147.068 126.281 169.504 135.412 170.175 135.638C170.072 136.195 166.611 148.144 158.346 160.319C150.976 171.033 143.28 181.729 131.571 181.729C119.863 181.729 116.85 174.859 103.333 174.859C90.1611 174.859 85.4779 181.956 74.7679 181.956C64.0579 181.956 56.5854 172.042 47.9932 159.867C38.0411 145.57 30 123.359 30 102.279C30 68.4673 51.7639 50.5351 73.1836 50.5351C84.565 50.5351 94.0525 58.0837 101.198 58.0837C107.999 58.0837 118.606 50.083 131.554 50.083C136.461 50.083 154.093 50.5352 165.698 67.3366ZM125.407 35.7686C130.762 29.3507 134.55 20.4455 134.55 11.5404C134.55 10.3055 134.447 9.05322 134.223 8.04443C125.51 8.3749 115.145 13.9058 108.895 21.2282C103.988 26.8635 99.4075 35.7686 99.4075 44.7955C99.4075 46.1523 99.6311 47.5087 99.7346 47.9437C100.285 48.048 101.181 48.1698 102.076 48.1698C109.893 48.1698 119.725 42.8823 125.407 35.7686Z" fill="#2C333B"/>
</svg>
