<svg width="200" height="200" viewBox="0 0 200 200" fill="none" xmlns="http://www.w3.org/2000/svg">
<path fill-rule="evenodd" clip-rule="evenodd" d="M100.069 18.3997C54.1431 18.3997 17.0168 55.7997 17.0168 102.069C17.0168 139.054 40.8049 170.361 73.8053 181.442C77.9312 182.275 79.4425 179.641 79.4425 177.426C79.4425 175.486 79.3065 168.838 79.3065 161.91C56.2035 166.898 51.3925 151.936 51.3925 151.936C47.6797 142.24 42.1785 139.747 42.1785 139.747C34.6169 134.622 42.7293 134.622 42.7293 134.622C51.1171 135.176 55.5184 143.21 55.5184 143.21C62.9423 155.953 74.9052 152.353 79.7179 150.136C80.4047 144.733 82.6062 140.993 84.9437 138.916C66.5174 136.976 47.1306 129.773 47.1306 97.635C47.1306 88.4924 50.4286 81.0124 55.6544 75.195C54.8299 73.1176 51.9416 64.5275 56.4806 53.0304C56.4806 53.0304 63.4931 50.8136 79.3048 61.6188C86.0744 59.7873 93.0557 58.8556 100.069 58.8478C107.081 58.8478 114.23 59.8185 120.831 61.6188C136.644 50.8136 143.657 53.0304 143.657 53.0304C148.196 64.5275 145.306 73.1176 144.481 75.195C149.845 81.0124 153.007 88.4924 153.007 97.635C153.007 129.773 133.62 136.837 115.056 138.916C118.082 141.548 120.693 146.534 120.693 154.43C120.693 165.65 120.557 174.655 120.557 177.424C120.557 179.641 122.07 182.275 126.194 181.443C159.195 170.359 182.983 139.054 182.983 102.069C183.119 55.7997 145.856 18.3997 100.069 18.3997Z" fill="#24292F"/>
</svg>
