<svg width="200" height="200" viewBox="0 0 200 200" fill="none" xmlns="http://www.w3.org/2000/svg">
<path fill-rule="evenodd" clip-rule="evenodd" d="M100.069 18.3997C54.1434 18.3997 17.0171 55.7997 17.0171 102.069C17.0171 139.054 40.8052 170.361 73.8056 181.442C77.9315 182.275 79.4428 179.641 79.4428 177.426C79.4428 175.486 79.3068 168.838 79.3068 161.91C56.2038 166.898 51.3928 151.936 51.3928 151.936C47.68 142.24 42.1788 139.747 42.1788 139.747C34.6172 134.622 42.7296 134.622 42.7296 134.622C51.1174 135.176 55.5187 143.21 55.5187 143.21C62.9426 155.953 74.9055 152.353 79.7182 150.136C80.405 144.733 82.6065 140.993 84.944 138.916C66.5177 136.976 47.1309 129.773 47.1309 97.635C47.1309 88.4924 50.4289 81.0124 55.6547 75.195C54.8302 73.1176 51.9419 64.5275 56.4809 53.0304C56.4809 53.0304 63.4934 50.8136 79.3051 61.6188C86.0746 59.7873 93.056 58.8556 100.069 58.8478C107.081 58.8478 114.23 59.8185 120.831 61.6188C136.644 50.8136 143.657 53.0304 143.657 53.0304C148.196 64.5275 145.306 73.1176 144.481 75.195C149.845 81.0124 153.007 88.4924 153.007 97.635C153.007 129.773 133.62 136.837 115.056 138.916C118.082 141.548 120.693 146.534 120.693 154.43C120.693 165.65 120.557 174.655 120.557 177.424C120.557 179.641 122.07 182.275 126.194 181.443C159.195 170.359 182.983 139.054 182.983 102.069C183.119 55.7997 145.857 18.3997 100.069 18.3997Z" fill="white"/>
</svg>
