<svg width="200" height="200" viewBox="0 0 200 200" fill="none" xmlns="http://www.w3.org/2000/svg">
<path d="M165.698 72.3366C164.7 73.1194 147.068 83.1551 147.068 105.47C147.068 131.281 169.504 140.412 170.175 140.638C170.072 141.195 166.611 153.144 158.346 165.319C150.976 176.033 143.28 186.729 131.571 186.729C119.863 186.729 116.85 179.859 103.333 179.859C90.1611 179.859 85.4779 186.956 74.7679 186.956C64.0579 186.956 56.5854 177.042 47.9932 164.867C38.0411 150.57 30 128.359 30 107.279C30 73.4673 51.7639 55.5351 73.1836 55.5351C84.565 55.5351 94.0525 63.0837 101.198 63.0837C107.999 63.0837 118.606 55.083 131.554 55.083C136.461 55.083 154.093 55.5352 165.698 72.3366ZM125.407 40.7686C130.762 34.3507 134.55 25.4455 134.55 16.5404C134.55 15.3055 134.447 14.0532 134.223 13.0444C125.51 13.3749 115.145 18.9058 108.895 26.2282C103.988 31.8635 99.4075 40.7686 99.4075 49.7955C99.4075 51.1523 99.6311 52.5087 99.7346 52.9437C100.285 53.048 101.181 53.1698 102.076 53.1698C109.893 53.1698 119.725 47.8823 125.407 40.7686Z" fill="white"/>
</svg>
