<svg width="200" height="200" viewBox="0 0 200 200" fill="none" xmlns="http://www.w3.org/2000/svg">
<path d="M155.535 48.3729C145.178 43.5271 134.104 40.0053 122.526 38C121.104 40.5707 119.443 44.0284 118.298 46.779C105.99 44.9281 93.7956 44.9281 81.7144 46.779C80.5693 44.0284 78.8704 40.5707 77.4357 38C65.8454 40.0053 54.7584 43.54 44.4013 48.3985C23.511 79.9666 17.8479 110.751 20.6794 141.097C34.535 151.444 47.9627 157.73 61.1638 161.843C64.4233 157.357 67.3302 152.588 69.8345 147.563C65.065 145.75 60.4969 143.514 56.1805 140.917C57.3256 140.069 58.4457 139.182 59.5279 138.27C85.8546 150.583 114.459 150.583 140.472 138.27C141.566 139.182 142.686 140.069 143.819 140.917C139.49 143.527 134.909 145.763 130.14 147.576C132.644 152.588 135.538 157.37 138.81 161.856C152.024 157.743 165.464 151.457 179.32 141.097C182.642 105.918 173.644 75.4164 155.535 48.3729ZM73.4212 122.434C65.5181 122.434 59.037 115.056 59.037 106.072C59.037 97.0873 65.3797 89.6966 73.4212 89.6966C81.4628 89.6966 87.9437 97.0743 87.8053 106.072C87.8178 115.056 81.4628 122.434 73.4212 122.434ZM126.578 122.434C118.675 122.434 112.194 115.056 112.194 106.072C112.194 97.0873 118.537 89.6966 126.578 89.6966C134.62 89.6966 141.101 97.0743 140.962 106.072C140.962 115.056 134.62 122.434 126.578 122.434Z" fill="#5865F2"/>
</svg>
