<svg width="200" height="200" viewBox="0 0 200 200" fill="none" xmlns="http://www.w3.org/2000/svg">
<path fill-rule="evenodd" clip-rule="evenodd" d="M43.1111 172H155.889C164.787 172 172 164.787 172 155.889V43.1111C172 34.2132 164.787 27 155.889 27H43.1111C34.2132 27 27 34.2132 27 43.1111V155.889C27 164.787 34.2132 172 43.1111 172Z" fill="#0A66C2"/>
<path fill-rule="evenodd" clip-rule="evenodd" d="M151.861 151.861H130.344V115.213C130.344 105.165 126.526 99.5494 118.573 99.5494C109.921 99.5494 105.401 105.393 105.401 115.213V151.861H84.6644V82.0463H105.401V91.4503C105.401 91.4503 111.636 79.9133 126.451 79.9133C141.259 79.9133 151.861 88.9562 151.861 107.659V151.861ZM59.9258 72.9046C52.8625 72.9046 47.1389 67.1361 47.1389 60.0217C47.1389 52.9074 52.8625 47.1389 59.9258 47.1389C66.9891 47.1389 72.7093 52.9074 72.7093 60.0217C72.7093 67.1361 66.9891 72.9046 59.9258 72.9046ZM49.2184 151.861H70.8412V82.0463H49.2184V151.861Z" fill="white"/>
</svg>
