<svg width="200" height="200" viewBox="0 0 200 200" fill="none" xmlns="http://www.w3.org/2000/svg">
<path d="M150.547 151.55H129.062V117.903C129.062 109.88 128.919 99.5511 117.888 99.5511C106.698 99.5511 104.986 108.293 104.986 117.319V151.548H83.5019V82.3562H104.127V91.812H104.416C106.48 88.2827 109.462 85.3793 113.046 83.4111C116.63 81.4429 120.68 80.4835 124.765 80.6352C146.541 80.6352 150.556 94.9587 150.556 113.593L150.547 151.55ZM59.2603 72.8983C56.7944 72.8987 54.3837 72.1679 52.3332 70.7983C50.2826 69.4286 48.6843 67.4816 47.7402 65.2036C46.7962 62.9255 46.5488 60.4186 47.0295 57.9999C47.5101 55.5813 48.6971 53.3594 50.4404 51.6154C52.1838 49.8714 54.4051 48.6835 56.8235 48.202C59.2419 47.7205 61.7488 47.967 64.0272 48.9102C66.3055 49.8535 68.253 51.4512 69.6233 53.5014C70.9936 55.5515 71.7253 57.9619 71.7257 60.4279C71.726 62.0652 71.4038 63.6866 70.7776 65.1994C70.1513 66.7122 69.2331 68.0869 68.0756 69.2449C66.9181 70.4028 65.5438 71.3215 64.0313 71.9483C62.5188 72.5752 60.8976 72.898 59.2603 72.8983ZM70.0025 151.55H48.4956V82.3562H70.0025V151.55ZM161.258 28.0099H37.6997C34.8953 27.9782 32.193 29.0613 30.1867 31.0211C28.1804 32.9809 27.0342 35.657 27 38.4615V162.536C27.0331 165.342 28.1785 168.02 30.1848 169.982C32.191 171.944 34.8939 173.029 37.6997 172.999H161.258C164.069 173.034 166.78 171.952 168.794 169.991C170.808 168.029 171.961 165.348 172 162.536V38.4526C171.96 35.6425 170.806 32.9633 168.792 31.0036C166.777 29.0438 164.068 27.9639 161.258 28.0009" fill="white"/>
</svg>
